<svg xmlns="http://www.w3.org/2000/svg" viewBox="0 0 256 256"><path fill="#545454" d="M54.71 183.66q-1.7-1.14-3.11-2.64-24.27-25.85-29.11-59.57-1.4-9.79-.87-19.95 1.97-37.72 27.11-66.08 4.27-4.82 7.01-6.25 5.26-2.76 10.23.73 3.63 2.54 4.56 6.32 1.03 4.15-1.47 8.34-.7 1.18-2.41 2.93-2.01 2.07-2.59 2.74Q39.59 78.38 43 115q2.65 28.38 22.7 49.97 3.62 3.9 4.51 6.36 2.18 6.02-2.33 10.63-2.65 2.71-6.02 3.27-3.86.66-7.15-1.57Zm152.71-147.9q26.1 29.45 27 68.49.24 10.23-1.39 19.92-5.33 31.66-28.34 56.52-4.26 4.6-9.34 4.44-4.94-.15-8.19-4.29-3.3-4.2-1.38-9.49.88-2.44 4.52-6.39 17.29-18.74 21.71-43.53 1.75-9.83 1.13-19.93-1.86-30.3-22.7-52.94-1.73-1.88-2.83-3.19-1.42-1.71-1.91-3.72-1.79-7.3 3.48-11.24 3.81-2.85 8.29-2.14 3.29.52 5.8 2.81.07.07 4.15 4.68Z"/><path fill="#545454" d="M99.47 63.53q2.73 4.22.86 8.87-.62 1.54-4.87 6.7-4.01 4.86-6.56 10.6-2.48 5.56-3.19 11.9-2.27 20.18 12.21 35.47 3.51 3.71 3.09 8.18-.39 4.17-3.47 7.24-3.56 3.54-9.04 2.51-3.48-.66-6.32-3.48-1.01-1-4.49-5.43-12.55-16-13.44-35.59-1.21-26.64 16.31-46.69 2.57-2.93 5.35-4.31 4.18-2.06 7.94-.68 3.38 1.24 5.62 4.71Zm74.16-1.38q13.79 13.64 17.06 31.91 5.7 31.86-15.4 55.58-3.4 3.82-6.57 4.92-4.79 1.66-8.79-1.09-4.18-2.88-4.84-7.73-.68-5.13 3.6-9.55 6.83-7.06 9.83-16.15 2.91-8.81 1.83-18.29-1.44-12.58-9.74-22.49-4.17-4.98-4.86-6.67-2.13-5.16 1.08-9.63 2.56-3.56 6.38-4.5 2.93-.71 5.84.41 2.07.8 4.58 3.28Zm-34.42 62.56c-.33.22-.53.6-.52.99q.11 47.33.06 94.05 0 4.16-.59 6.53-1.56 6.27-6.73 7.9-4.73 1.5-9.1-1.07-5.09-3-5.08-10.11.05-48.72-.06-97.44c0-.31-.16-.6-.43-.77q-7.73-5.11-9.51-13.29-2-9.19 2.68-16.19 4.44-6.65 12.13-9.12 8.11-2.6 16.38 1.87 5.73 3.11 8.6 8.99 2.67 5.49 2.07 11.73-.94 9.95-9.9 15.93Z"/></svg>