<svg xmlns="http://www.w3.org/2000/svg" width="907" height="792" class="img-fluid" viewBox="0 0 9070 7920"><path fill="#2A3761" d="M1575 7910c4-7 2-22-4-33-10-21-101-274-101-283 0-2 15-4 34-4h35l32 100c19 55 36 100 39 100s21-44 41-98l36-97 37-3c33-3 37-1 32 15-3 10-30 83-60 163l-54 145-37 3c-26 2-35 0-30-8zm-732-27-33-4v-408l36-7c53-10 151 2 180 21 14 9 32 33 41 52 18 45 3 87-39 109l-30 16 33 16c81 41 74 143-13 188-30 15-124 25-175 17zm148-70c5-5 11-23 15-40 9-43-30-83-81-83h-35v64c0 42 4 66 13 70 16 7 78-1 88-11zm-3-195c17-17 15-63-3-78-9-7-32-13-53-14l-37-1-3 53-3 52h43c24 0 49-5 56-12zm206 258c-35-15-44-32-44-80 0-60 34-85 138-101 46-7 47-8 32-36-12-21-77-27-110-9-15 8-21 6-29-9-9-17-5-22 32-40 77-38 149-24 172 34 10 23 15 70 15 140v105h-30c-20 0-30-5-30-15 0-19 2-19-45 5-46 23-59 24-101 6zm114-58c7-7 12-27 12-45 0-30-3-33-29-33-43 0-76 30-67 63 5 22 12 27 39 27 18 0 38-5 45-12zm557 65c-32-8-54-33-61-69-11-62 35-105 129-118 42-7 48-10 45-29s-10-22-50-25c-26-2-56 2-67 7-15 8-20 7-25-5-9-23-9-22 34-44 54-27 112-26 146 3 31 27 42 80 43 200l1 77h-30c-17 0-33-6-36-14-5-12-12-11-47 5-43 19-48 20-82 12zm99-69c9-8 16-29 16-45 0-26-3-29-31-29-46 0-69 16-69 49 0 15 3 31 7 34 12 13 62 7 77-9zm1020 57c-61-28-87-77-82-152 4-53 9-64 40-96 115-115 297 19 230 170-36 80-113 113-188 78zm107-57c7-9 15-41 17-72 3-47 0-62-18-84-26-34-69-37-95-8s-27 130-1 159c23 25 78 28 97 5zm1066 62c-70-26-97-66-97-144 0-113 109-182 216-137 25 10 34 20 32 32s-11 17-23 15c-11-2-34-6-51-9-43-7-73 11-91 54s-10 96 18 124c22 22 97 27 118 7 10-11 15-9 27 6 13 18 12 21-13 37-40 25-92 31-136 15zm278 7c-32-8-54-33-61-69-11-62 35-105 129-118 42-7 48-10 45-29s-10-22-50-25c-26-2-56 2-67 7-15 8-20 7-25-5-9-23-9-22 34-44 54-27 112-26 146 3 31 27 42 80 43 200l1 77h-30c-17 0-33-6-36-14-5-12-12-11-47 5-43 19-48 20-82 12zm99-69c9-8 16-29 16-45 0-26-3-29-31-29-46 0-69 16-69 49 0 15 3 31 7 34 12 13 62 7 77-9zm247 58c-74-37-100-122-63-205 26-59 72-89 127-84 22 2 48 7 58 11 15 7 17 2 17-41 0-46 2-50 35-66l35-17v410h-30c-20 0-30-5-30-15 0-19 2-19-45 5-48 24-61 25-104 2zm116-64c32-29 33-128 3-158-27-27-66-25-95 5-20 19-25 34-25 77 0 67 20 98 62 98 19 0 41-9 55-22zm282 73c-66-21-109-80-109-150 0-43 41-112 80-132 96-52 210 16 210 125v36h-105c-95 0-104 2-98 18 18 50 80 68 146 43 21-8 26-6 30 10 9 35-94 69-154 50zm101-200c0-48-72-69-110-31s-27 50 45 50c58 0 65-2 65-19zm995 198c-116-36-142-200-42-271 40-29 114-35 156-14 36 19 40 54 6 48-86-15-94-14-120 13-19 22-25 38-25 75 0 66 28 100 81 100 22 0 49-5 59-10 15-8 21-6 30 10 10 18 6 23-32 40-47 21-67 23-113 9zm460-2c-22-8-50-19-63-26-21-11-22-13-5-35 16-21 20-21 52-10 78 28 134 6 129-49-3-29-11-36-78-69-87-43-116-79-106-132 16-82 120-119 214-76 43 19 43 20 26 45-13 20-20 23-35 14-11-5-43-9-72-7-50 3-52 4-55 35-3 30 0 33 74 70 88 43 116 74 116 127 0 90-96 145-197 113zm362-1c-69-25-97-66-97-143 0-86 64-153 145-153 76 0 125 49 140 138l7 42h-106c-115 0-127 7-83 48 25 24 93 30 127 12 14-7 20-6 24 6 9 23-10 42-53 54-46 13-58 12-104-4zm113-189c0-7-7-23-16-35-29-41-114-19-114 30 0 16 8 18 65 18 46 0 65-4 65-13zm1015 188c-156-56-116-295 50-295 36 0 105 26 105 39-1 23-18 31-44 21-41-15-70-12-99 10-45 35-48 119-7 160 23 23 98 28 118 8 10-10 15-10 22 2 14 22 12 28-12 44-36 23-89 27-133 11zm312 1c-21-8-47-22-57-31-46-42-51-147-10-205 42-58 127-77 187-40 43 26 62 57 69 113l7 47h-107c-58 0-106 4-106 9 0 4 9 20 21 35 17 21 29 26 65 26 25 0 54-5 64-10 15-8 21-6 30 10s6 22-19 34c-44 23-101 28-144 12zm113-193c0-50-85-73-114-31-29 41-21 48 49 48 54 0 65-3 65-17zm200 195c-50-14-62-26-49-49 8-16 14-17 30-9 11 6 39 10 62 8 37-3 42-6 45-30 3-25-1-29-43-40-79-21-112-71-89-133 16-41 97-56 160-30 31 13 33 16 23 34-10 15-18 17-36 10-37-14-73-11-80 7-10 26 10 46 60 61 51 15 77 43 77 86 0 41-17 67-55 83-39 16-56 16-105 2zm-8839-5c0-4 33-96 72-203l72-195 35-3 35-3 70 193c39 106 72 198 73 206 3 10-6 12-34 10-34-3-39-7-52-45l-14-43H112l-14 43c-13 38-18 42-51 45-20 2-37 0-36-5zm229-156c0-29-48-151-54-137-14 34-46 134-46 142 0 4 23 8 50 8 34 0 50-4 50-13zm190-25v-188l35-17c20-9 38-17 40-17 3 0 5 92 5 205v205h-80v-188zm1720 43v-145h35c24 0 35 5 35 15 0 12 6 11 33-5 45-28 99-26 134 4 28 24 28 26 31 150l4 126h-82v-110c0-101-2-110-21-121-12-6-36-8-55-4l-34 6v229h-80v-145zm550 30v-115h-25c-21 0-25-5-25-30s4-30 25-30c23 0 25-4 25-44 0-49 16-72 56-82 29-7 62 0 89 20 26 19 8 40-37 40-30 1-33 4-36 34-3 31-2 32 37 32s41 2 41 30-2 30-40 30h-40v230h-70v-115zm560-30v-145h34c19 0 36 5 38 12 3 8 11 7 28-5 29-20 50-21 84-6 36 17 39 35 9 54-21 14-30 15-48 5-12-7-31-10-41-8-17 3-19 15-22 121l-3 117h-79v-145zm401 138c0-4 33-96 72-203l72-195 35-3 35-3 70 193c39 106 72 198 73 206 3 10-6 12-34 10-34-3-39-7-52-45l-14-43h-156l-14 43c-13 38-18 42-51 45-20 2-37 0-36-5zm229-156c0-29-48-151-54-137-14 34-46 134-46 142 0 4 23 8 50 8 34 0 50-4 50-13zm1550 18v-145h30c17 0 33 6 36 14 5 12 11 11 37-5 54-32 144-17 161 27 6 15 10 14 35-10 33-32 92-43 134-27 43 17 57 63 57 186v105h-80v-104c0-82-3-108-16-120-20-20-63-20-92 0-20 14-22 23-22 120v104h-80v-104c0-117-9-136-61-136-64 0-69 9-69 130v110h-70v-145zm580 0v-145h80v290h-80v-145zm1340 0v-145h34c19 0 36 5 38 12 3 8 11 7 28-5 29-20 50-21 84-6 36 17 39 35 9 54-21 14-30 15-48 5-12-7-31-10-41-8-17 3-19 15-22 121l-3 117h-79v-145zm319 0-57-145h74l29 91c16 50 32 92 36 95 4 2 22-39 39-91l32-95h78l-19 48c-98 241-96 237-127 240-29 3-30 1-85-143zm291 0v-145h80v290h-80v-145zm-7400-10c0-25 1-25 85-25s85 0 85 25-1 25-85 25-85 0-85-25zm5451-189c-20-24-5-65 26-72 35-9 66 26 54 59-10 27-62 35-80 13zm1949-7c-9-16-8-26 5-45 19-29 46-31 70-4 15 17 16 24 7 45-15 32-66 35-82 4zM476 7227c-22-16-25-65-5-78 26-16 58-9 75 16 15 23 15 27 0 50-18 28-43 32-70 12zm118-12c-24-36-6-75 34-75 35 0 52 16 52 52 0 49-59 65-86 23zm711 5c-27-29-10-74 28-78 37-4 57 13 57 49 0 47-53 65-85 29zm132 2c-34-37-15-82 33-82 32 0 50 17 50 46 0 48-52 70-83 36zm6500 0c-34-37-15-82 33-82 32 0 50 17 50 46 0 48-52 70-83 36zm129 2c-19-18-21-55-4-72 31-31 88-4 88 42 0 20-28 46-50 46-10 0-26-7-34-16zm301-2c-34-37-15-82 33-82 32 0 50 17 50 46 0 48-52 70-83 36zm-1132-31c-77-35-125-113-125-204 0-39 23-107 37-107 4 0 24-4 44-9l37-8-14 33c-20 48-18 123 6 161 43 72 148 84 202 24 28-31 28-31 28-180v-149l44-26c25-14 47-26 50-26s6 78 6 174c0 171 0 175-28 227-22 43-38 59-81 81-64 34-144 37-206 9zM965 7048c-35-21-43-22-65-11-36 18-227 17-262-1-24-13-32-13-58 1-23 11-57 14-144 11-103-3-117-5-138-26-24-21-26-22-57-6-61 30-136 6-185-60-16-21-21-42-21-95 0-59 4-72 29-105 35-46 87-70 138-63 21 3 38 1 38-4s23-20 50-34l50-25v153c0 106 4 157 12 165 7 7 44 12 98 12s91-5 98-12c8-8 12-46 12-105v-92l43-26c24-14 47-25 50-25 4 0 7 53 7 118 0 78 4 122 12 130 17 17 182 16 195 0 6-7 13-43 15-79 10-129 60-184 165-184 103 0 150 51 162 180 4 49 12 80 22 86 21 13 173 11 187-3 8-8 12-46 12-105v-93l50-25 50-25v121c0 199-27 229-206 229-73-1-117-5-134-14-22-13-28-12-54 7-45 32-121 34-171 5zm125-88c16-16 20-33 20-83 0-78-17-107-65-107-47 0-65 29-65 103 0 48 4 62 25 82 29 30 58 32 85 5zm-862-22c7-7 12-40 12-79 0-71-6-79-54-79-59 0-86 111-37 151 26 22 61 25 79 7zm1424 67 22-45h78c73 0 79-2 89-24 18-40 2-95-40-137l-37-37 21-36c11-20 23-36 27-36 18 0 93 78 109 115 24 52 25 156 2 195-24 42-53 50-178 50h-115l22-45zm501 25c-63-38-68-54-71-261l-4-188 51-26 51-25v199c0 168 2 202 16 215 13 13 43 16 174 16h160l16-25c14-22 15-32 5-66-18-61-58-82-143-75l-68 5v-40c0-37 8-50 83-134 82-94 82-94 130-95h49l-71 78c-39 42-71 80-71 83 0 4 17 9 38 13 53 8 107 48 131 99 28 57 28 140 1 184-35 57-58 63-262 63-164 0-186-2-215-20zm587 15c0-3 9-24 20-45 20-39 21-40 75-40h55v-268l44-26c25-14 47-26 50-26s6 72 6 160v160h38c74 0 76-6 82-204l5-177 43-25 42-25v201c0 224-6 251-64 293-29 20-43 22-213 25-101 2-183 1-183-3zm620-230v-235l50-25 50-25v520h-100v-235zm517 218c-40-26-67-88-67-156v-57l50-25 50-25v83c0 51 5 88 12 95 8 8 63 12 183 12s175-4 183-12 12-46 12-104v-92l44-26c25-14 47-26 50-26s6 52 6 115c0 127-10 164-54 205-27 25-29 25-234 28-183 2-210 0-235-15zm747-2c-56-34-64-68-64-270v-181l50-25 50-25v203c0 145 3 206 12 215 14 14 166 16 187 3 11-7 17-37 21-98 6-99 22-132 75-157 115-55 230 30 230 169-1 114-61 185-159 185-28 0-63-6-77-14-22-11-30-11-50 0-16 9-62 13-134 14-90 0-115-3-141-19zm450-93c10-13 16-43 16-73 0-66-20-95-66-95-28 0-36 5-44 26-13 33-13 120 0 145 15 28 74 26 94-3zm206 107c0-3 9-24 20-45l20-40h73c43 0 78-5 85-12 32-32 4-129-48-168l-22-16 22-37c12-20 24-37 28-37 3 0 20 11 38 25 44 33 81 99 90 155 3 25 13 56 21 69 15 23 16 23 156 19 121-4 149-7 189-27 25-12 54-31 64-42 17-19 17-22 2-47-9-15-31-38-49-50-46-32-120-27-179 12l-41 27 3-43c3-37 8-46 45-71 102-72 230-30 315 102 34 54 35 68 7 98l-22 22 27 11c15 5 67 10 116 10 124 0 120 7 120-204v-173l50-27 50-27v200c0 239-3 231 105 231 107 0 105 4 105-204v-173l50-27 50-27v199c0 188-1 201-23 242-33 63-72 80-185 80-65 0-102-5-123-16-28-14-34-14-66 1-27 13-58 16-147 13-106-3-115-5-150-32l-37-28-62 28c-58 27-72 29-213 32-125 3-157 1-183-13-28-14-34-14-53 0-17 11-50 15-135 15-62 0-113-2-113-5zm2493-15c-57-35-63-58-63-264v-185l43-25 42-26 5 206c4 167 8 206 20 214 19 13 171 13 190 0 11-7 16-34 18-108l4-99 44-21 44-22v108c0 146 4 152 113 152 45 0 89-5 97-10 11-7 16-34 18-108l4-99 44-21 44-22v108c0 144 6 152 104 152 113 0 110 4 116-204l5-177 43-25 42-25v203c0 227-6 252-70 296-29 19-45 22-134 22-66-1-110-5-126-14-21-12-29-12-52 0-37 19-233 19-268 0-21-12-29-12-52 0-18 9-62 14-135 14-89 0-113-3-140-20zm1137-215v-235l50-25 50-25v520h-100v-235zm-1630-145c-24-45 21-92 66-71 27 12 33 58 12 79-20 20-66 15-78-8zm-3280-20c-23-23-24-33-10-61 12-22 59-26 78-7s15 66-7 78c-28 14-38 13-61-10zm127 2c-34-37-15-82 33-82 32 0 50 17 50 46 0 48-52 70-83 36zm1769-68c-21-21-20-47 2-67 37-34 82-15 82 33 0 14-5 31-12 38-17 17-54 15-72-4zM91 6561c-17-31-13-49 14-67 31-20 63-10 71 23 9 35-7 57-44 61-22 2-34-2-41-17zm131 7c-26-26-3-88 31-88 24 0 57 31 57 54 0 29-18 46-50 46-14 0-31-5-38-12zm2648-18c6-11 15-20 20-20 6 0 10-12 10-27 0-33 8-46 35-60 24-13 65 0 65 21 0 9-12 16-32 18-25 2-33 8-33 23 0 16 8 21 43 23 34 3 42 7 38 18-3 9-6 18-6 20s-34 4-75 4c-73 0-75-1-65-20zM63 6127c2-7 37-121 78-255 65-217 76-245 99-257 41-21 350-113 505-150 428-103 809-145 1305-145 636 0 1012 47 1415 177 316 102 633 260 905 453 161 114 161 114 20 69-321-103-726-189-1050-223-486-52-1148-52-1660 0-519 52-1047 161-1543 318-50 16-77 21-74 13zm8812-34c-503-157-1066-265-1635-313-360-30-973-30-1340 0-410 34-859 124-1220 244-57 19-106 34-107 32-6-5 221-164 329-230 59-36 174-99 255-139 385-193 747-295 1217-343 211-21 855-30 1066-15 451 33 876 113 1271 240l155 50 78 257c42 141 76 257 74 258s-66-17-143-41zM3650 3779c-157-30-340-190-435-380l-34-66-84-12c-110-15-192-43-267-92-175-113-287-309-335-585-34-191-16-554 30-645 35-67 47-17 28 113-19 122-12 388 12 473 63 226 204 363 440 426 67 18 108 22 250 22 152 0 180-2 267-26 414-110 1086-530 1296-808 23-31 42-64 42-75 0-10-20-57-45-104-95-177-185-369-225-475-23-60-48-116-55-124-9-9-11-21-5-35 4-12 16-70 25-129 10-59 21-107 24-107 7 0 93 88 194 197 31 34 57 67 57 74 0 8-15 10-55 5l-54-6 92 187c102 206 123 263 138 367 14 104-9 242-60 356-42 94-249 319-416 451-167 133-419 290-594 372-106 49-272 109-368 132-40 9-73 21-73 25 0 17 121 119 167 141 83 40 232 35 357-11 71-27 99-57 153-163 45-90 117-182 135-171 6 4 7 31 4 68-6 56-5 65 22 107 32 49 108 105 197 145 96 42 272 26 379-34 46-27 56-39 108-138 80-150 148-217 148-145 0 16-4 41-9 54-23 59 64 157 197 223 69 34 84 38 150 37 188-4 292-56 354-177 18-35 20-51 14-121-11-153-81-627-226-1535-77-485-113-745-126-925-6-77-11-96-35-129-19-26-29-52-29-75 0-56 60-293 74-288 12 4 62 92 176 312 102 199 154 355 118 355-7 0-43-30-80-67-38-37-68-61-68-54s11 79 25 160c47 280 137 869 216 1426l81 560-5 170c-6 187-24 281-76 390-86 178-262 305-422 305-85 0-210-51-302-122-48-38-89-108-102-176l-11-53-49 97c-84 166-183 250-327 277-75 14-142 1-242-47-132-64-206-150-221-258l-7-48-50 101c-85 170-187 255-333 279-68 11-83 11-145-1zm2769 5c-1-5-3-115-3-244-2-231-3-240-53-555-59-366-236-1570-253-1720-6-55-24-207-41-338-28-224-32-243-65-309l-35-70 32-128c36-146 41-159 61-143 22 19 298 585 305 625 8 53-9 50-90-18-64-53-67-54-67-30 0 34 59 434 125 851 67 421 147 955 176 1180 17 129 23 222 23 385 1 237-13 334-61 442-24 55-51 90-54 72z" style="transform:none"/><path fill="#DEB34B" d="M4310 5570c-541-544-1166-870-1904-995-348-59-767-83-1120-65-127 6-234 14-239 17-22 14 16-33 217-259l209-238h112c405 0 934 98 1305 242 584 227 1051 589 1361 1056 75 114 227 390 217 396-2 1-73-69-158-154zm333 90c178-390 503-773 879-1033 280-193 608-349 933-442 309-89 644-141 966-152l185-6 221 249c121 137 220 249 219 250 0 1-41-3-91-8-128-14-654-13-820 1-746 62-1279 236-1810 591-210 141-383 285-583 489l-134 136 35-75zM3083 2984c-80-40-170-177-227-348-14-43-26-81-26-84s23 32 51 79c55 93 124 178 134 167 4-4-3-21-15-37-38-55-127-253-168-376-56-168-83-298-74-359l7-49 19 52c10 28 22 51 28 51 5 0 7-8 4-17-17-60-28-201-28-348 0-263 1-264 22-170 20 86 38 140 45 133 2-2 0-60-6-128-18-211 3-422 58-573 78-217 296-556 487-755 43-45 80-81 82-80 1 2-13 69-31 151-18 81-43 216-55 300-31 211-38 246-118 555-39 149-67 272-62 272 4 0 29-48 53-107 25-60 51-119 57-133 8-20 9-12 5 40-8 90-27 167-91 378-31 100-53 188-51 195 3 6 31-43 64-111l60-123 13 279c7 153 10 301 7 328s-22 105-42 173c-19 69-34 129-32 135s24-28 48-76c24-49 47-88 51-88 5 0 8 15 8 33 0 17 5 96 10 173 11 143 3 265-20 346-14 49-53 94-100 117l-38 18-32-111c-66-238-110-502-131-801-14-198-6-617 15-775 19-136 20-162 6-139-11 18-45 265-61 434-19 214-22 327-11 424 7 53 17 155 23 226 14 170 49 373 99 571 22 87 40 162 40 167 0 12-43 7-77-9z" style="transform:none"/><path fill="#6186C5" d="M4420 5884c-84-61-320-194-493-280-657-324-1338-484-2068-484-260 0-416 10-689 46-253 33-677 116-762 149-10 4 47-110 145-286l162-294 50-7c272-39 723-60 1023-47 314 13 580 53 906 135 623 157 1146 451 1587 895 99 100 189 200 177 199-1-1-19-12-38-26zm248-32c89-101 304-306 417-396 423-335 847-535 1414-666 411-95 759-126 1231-109 206 7 295 14 581 45l56 7 137 248c76 137 148 269 162 293l24 43-137-34c-274-67-663-129-967-153-166-13-537-13-702 0-402 32-751 103-1134 230-347 115-675 268-983 458l-148 91 49-57zm-660-1399c-121-67-153-94-150-127 2-28 79-234 92-249 4-5 29 7 55 27 25 20 78 54 116 76 38 23 74 50 80 62 32 60-28 250-81 256-15 1-60-17-112-45zm419-111c-59-31-121-69-138-84-27-24-30-32-24-60 14-63 70-201 87-212 12-7 37-1 102 28 129 58 176 90 176 122 0 57-49 204-82 246-12 16-21 13-121-40zm508-42c-77-37-148-77-159-88-18-21-18-24 14-154 18-73 36-137 40-141s24 2 46 15c21 13 88 48 148 78 141 70 152 84 137 176-10 67-56 175-76 180-5 1-73-28-150-66zm-752-3190c-86-30-173-81-179-104-4-20 39-232 50-243 3-3 58 17 123 45 111 47 118 52 121 81 5 52-25 203-45 222-17 17-20 17-70-1z" style="transform:none"/></svg>