<svg xmlns="http://www.w3.org/2000/svg" width="512" height="512" class="img-fluid" viewBox="0 0 5120 5120"><g fill="#FFF" style="transform:none"><path d="M2350 3880c-115-10-247-33-355-61-44-12-96-25-115-30-38-9-234-81-340-124-96-40-291-139-405-207-293-175-556-382-849-667-205-200-214-227-117-338 94-109 255-262 401-382 160-133 463-350 575-413 153-87 379-197 480-235 69-26 318-113 324-113 2 0-15 13-40 29-118 79-220 187-296 311-124 207-174 377-174 600 0 212 34 350 128 530 75 144 150 236 273 334 178 143 307 204 523 245 137 27 257 27 394 0 230-44 380-119 563-280 43-38 102-99 130-135 73-93 154-252 190-374 27-92 32-125 37-265 9-267-33-425-176-665-54-89-191-235-274-290-33-22-58-40-56-40 8 0 206 69 284 98 245 92 520 238 735 390 340 241 533 405 733 627 78 86 87 99 87 135 0 34-8 49-59 107-32 38-107 115-167 173-286 275-564 485-889 670-290 164-663 299-973 351-132 21-430 32-572 19z"/><path d="M2410 2741c-110-35-245-143-290-232-85-165-88-330-11-491 49-102 188-221 300-254 74-23 227-23 299-1 239 74 391 318 353 567-31 195-174 359-363 414-75 22-216 20-288-3z"/></g></svg>