<svg class="img-fluid" xmlns="http://www.w3.org/2000/svg" width="2700" height="2700" viewBox="0 0 27000 27000"><g style="transform:none" fill="#FFF"><path d="M4670 25278c0-7 7-26 15-42 20-38 19-45-10-58-15-7-27-23-31-42-3-17-10-35-13-41-4-5-18-41-30-80-12-38-26-79-31-90-14-34-67-186-91-260-12-38-26-74-31-79-4-6-8-18-8-27 0-10-5-30-12-46-6-15-26-71-44-123l-32-95 22-7c11-3 60-6 108-7 107-1 108 0 161 165 22 65 43 128 47 139 12 28 65 193 77 235 15 60 40 46 70-40 14-41 29-79 34-84 5-6 9-17 9-25 0-9 7-29 15-45 8-15 15-33 15-38 0-6 6-24 14-41 7-18 24-61 36-97 13-36 27-69 32-75 4-5 8-19 8-31 0-13 12-32 27-44 25-20 38-21 125-18 53 1 99 6 103 10 8 8-9 63-59 196-37 97-46 123-91 247-26 72-53 148-62 170-30 78-42 111-74 200-17 50-38 104-45 122-8 17-14 38-14 47 0 14-17 16-120 16-89 0-120-3-120-12zM2485 25193c-11-2-35-9-52-14l-33-11v-601c0-331 4-608 9-616 14-22 91-30 297-30 216-1 269 9 367 73 99 63 137 137 137 272 0 73-3 85-30 125-29 43-73 84-114 104-32 16-32 41 1 50 45 11 107 64 143 124 33 54 34 59 34 161 0 86-4 113-21 149-46 95-143 165-283 202-51 14-104 18-250 17-102 0-194-2-205-5zm408-207c18-7 43-26 57-42 23-26 25-37 25-120 0-84-2-93-29-128-38-51-79-66-176-66-124 0-120-6-120 168 0 162 4 189 29 195 39 11 184 6 214-7zm8-586c45-23 59-51 59-116 0-112-54-154-198-154-55 0-92 4-100 12-13 13-17 213-6 256 6 21 11 22 106 22 80 0 106-4 139-20zM3561 25183c-125-44-195-217-144-353 33-87 81-131 198-180 46-19 164-40 227-40 102 0 107-4 88-72-7-25-22-44-46-58-30-19-46-21-122-18-69 3-98 9-143 31-79 38-90 36-118-23s-25-64 55-115c107-69 144-79 288-80 119 0 135 2 174 24 56 31 104 89 132 159 21 54 23 76 28 381 4 269 2 325-9 332-22 14-167 11-179-3-5-7-18-23-28-36l-17-23-37 26c-94 64-243 85-347 48zm296-185c55-33 74-76 71-160l-3-73-40-3c-56-5-154 27-192 62-30 26-33 35-33 86 0 64 23 105 63 113 37 7 99-5 134-25zM5515 25184c-59-21-111-68-136-122-17-36-22-67-22-137-1-85 1-93 31-141 66-106 187-159 397-172 113-8 120-14 90-85-22-53-65-70-169-65-67 3-92 9-145 36-35 17-68 32-72 32-8 0-59-102-59-117 0-4 17-19 38-33 20-14 39-27 42-31 3-3 37-21 75-39 68-32 74-33 205-34 151-1 185 9 245 76 86 94 96 153 93 523l-3 300-93 3-93 3-14-36c-9-19-19-35-23-35s-24 11-44 25c-92 62-244 84-343 49zm298-191c22-14 45-39 53-58 17-42 19-146 2-163s-70-15-136 4c-69 20-97 39-117 81-21 44-19 84 8 124 36 54 115 59 190 12zM8906 25179c-262-106-369-412-240-685 30-63 120-151 194-189 52-26 63-28 185-29 116-1 136 2 185 23 85 37 137 79 184 151 62 93 81 163 81 290-1 118-15 170-69 253-57 88-138 153-236 190-66 25-219 22-284-4zm233-179c24-12 49-37 67-67 28-47 29-51 29-198 0-142-1-152-25-194-45-79-119-112-204-90-94 24-136 111-136 284 0 120 12 172 53 225 44 58 145 77 216 40zM12374 25181c-62-19-142-70-188-117-66-68-126-224-126-328 0-48 25-153 50-210 23-50 126-167 169-190 110-60 109-59 257-60 117 0 145 3 167 17 15 9 32 17 39 18 24 1 103 65 106 86 3 18-52 123-64 123-2 0-25-13-52-30-69-42-140-55-213-40-72 15-123 56-164 131-28 50-30 61-30 159 0 90 3 111 23 148 51 96 120 137 226 136 72-1 119-17 188-66l28-19 35 55c19 30 35 62 35 70 0 23-75 76-152 107-63 26-81 29-177 28-69-1-124-7-157-18zM13165 25184c-59-21-111-68-135-121-15-35-20-67-20-139 0-87 2-97 30-143 32-51 75-85 150-120 62-29 127-42 245-49 113-8 120-14 90-85-23-55-60-70-164-65-73 3-96 8-150 36-74 37-82 34-113-37-22-52-19-57 58-106 106-68 143-78 287-79 145-1 170 6 235 68 43 39 66 84 86 166 14 54 16 115 14 365l-3 300h-190l-10-32c-11-40-19-40-67-8-69 47-132 65-221 64-45 0-100-7-122-15zm298-191c22-14 45-39 53-58 17-42 19-146 2-163-25-25-140-6-208 35-59 35-76 116-37 174 36 54 115 59 190 12zM14241 25179c-112-40-189-121-232-247-27-79-27-265 1-352 42-132 113-220 221-276 49-25 64-28 169-28 101-1 121 2 162 22 26 13 52 21 58 17s10-55 10-126c0-130 6-145 68-172 15-7 57-29 94-50s72-36 78-32c7 4 10 212 10 619v614l-22 6c-13 3-56 6-96 6-73 0-73 0-93-35-12-19-26-35-31-35-6 0-27 13-47 28-60 47-112 62-209 61-59 0-105-7-141-20zm267-175c46-23 101-85 112-123 12-45 13-275 1-318-24-82-128-138-214-114-46 13-117 64-117 83 0 6-6 19-13 27-8 9-22 52-32 96-18 77-18 82 0 169 10 49 26 104 37 122 44 75 144 101 226 58zM15371 25174c-82-29-134-67-191-137-68-82-85-145-85-302 0-129 0-131 36-207 45-93 118-170 209-218 65-34 66-34 200-34s135 0 198 34c157 84 230 224 232 441 0 43-4 58-16 63-9 3-146 6-305 6-285 0-289 0-289 20 0 51 59 128 125 163 58 31 166 28 260-8 115-44 110-45 140 18 31 67 26 80-45 120-89 50-163 67-290 66-94-1-127-6-179-25zm347-569c4-26-31-106-55-127-69-60-206-47-268 24-32 38-52 98-40 118 4 7 72 9 183 8 169-3 177-4 180-23zM18665 25181c-168-55-277-187-304-366-15-99 1-211 44-297 37-76 143-178 221-214 55-26 69-28 194-28 133-1 136 0 202 32 84 41 118 68 118 93 0 21-57 119-70 119-5 0-11-4-14-9-11-18-83-49-139-61-116-24-228 29-272 128-9 20-20 45-25 54-17 31-12 193 7 235 50 109 124 159 237 157 74-1 111-14 174-61 19-14 37-21 41-17 31 38 61 85 66 105 9 37-63 91-174 130-70 24-232 25-306 0zM20055 25181c-67-19-91-29-185-76-42-21-66-39-68-52-4-24 55-117 86-134 17-9 27-10 45-1 71 35 109 44 214 49 101 5 115 4 157-17 55-26 86-77 86-140 0-34-6-47-43-83-45-45-94-72-192-105-142-48-252-131-301-228-26-51-29-68-28-143 0-65 6-97 21-131 37-80 110-142 206-178 80-30 265-31 354-3 88 28 191 81 196 101 6 24-72 138-100 146-11 3-31 1-43-6-42-23-166-50-230-50-79 0-125 22-152 71-44 80 10 148 167 210 163 65 233 106 311 183 95 95 125 211 88 337-35 119-134 212-265 252-74 23-242 21-324-2zM21130 25184c-87-29-169-78-212-129-39-46-77-134-93-220-16-85-16-96 0-179 18-100 44-158 103-233 38-47 121-113 143-113 5 0 22-8 36-17 41-27 281-25 338 3 167 80 259 238 253 432l-3 87-302 3c-167 1-303 6-303 11 0 26 34 100 58 124 80 84 199 95 357 32 69-28 105-23 105 13 0 10 7 28 16 41 13 18 14 27 5 45-15 28-97 74-175 97-76 24-258 25-326 3zm314-570c14-38-25-119-71-145-64-38-184-30-231 14-31 29-62 90-62 122v25h179c154 0 180-2 185-16zM24482 25181c-29-9-81-36-117-59-146-97-224-304-181-486 36-153 118-259 254-327 67-33 68-33 207-33 127 0 144 2 185 24 68 36 130 82 130 97 0 27-52 113-69 113-9 0-32-10-51-22-39-23-121-48-163-48-83 0-180 65-220 149-18 39-22 63-22 156 0 102 2 113 28 156 54 90 113 124 217 123 76 0 81-2 189-64l34-19 33 56c19 30 34 61 34 68 0 26-99 89-189 120-60 21-229 18-299-4zM25415 25181c-86-28-163-79-211-140-24-31-44-60-44-66 0-5-7-23-15-38-8-16-20-66-26-113-32-229 61-421 251-516 64-32 68-33 195-33 126 1 132 2 193 33 106 53 170 129 213 251 16 47 19 79 17 157l-3 99-297 3-298 2v26c0 14 5 35 11 47 19 36 82 97 119 115 53 26 167 20 255-13 112-42 107-43 133 13 12 28 22 57 22 65 0 27-87 80-184 111-68 22-262 20-331-3zm328-568c6-27-22-95-52-126-19-20-43-30-86-38-78-15-138 1-180 46-31 33-61 107-50 125 4 6 79 10 185 10 162 0 179-2 183-17zM26320 25176c-36-12-87-35-113-50-44-26-48-32-43-58 3-15 10-34 16-41 5-6 20-25 34-42l24-30 43 21c146 70 276 67 314-7 19-36 19-51-2-86-15-28-80-63-114-63-23 0-127-35-168-56-115-58-172-212-122-325 25-55 92-119 151-145 60-26 266-27 326-2 21 9 46 19 54 23 33 13 62 34 75 52 12 17 10 25-24 69-40 53-67 64-103 40-29-19-154-39-188-31-38 10-70 45-70 78 0 41 44 80 115 101 104 31 193 67 220 88 89 69 118 236 61 347-23 43-89 96-152 120-79 30-242 29-334-3zM18 25173c-19-5-25-23-8-23 5 0 15-20 21-45s15-48 20-51 9-12 9-21c0-8 6-29 14-46 8-18 24-61 36-97s25-69 30-75c4-5 10-21 13-35s15-50 26-80c12-30 33-84 46-120s33-90 45-120c11-30 31-84 42-120 12-36 28-74 35-85s13-27 13-37c0-9 7-34 16-55 20-46 27-63 49-128 33-96 32-95 144-95 67 0 102 4 108 13 6 6 22 46 37 87s36 98 46 125c10 28 44 120 75 205s63 172 71 193c8 20 20 54 28 75 8 20 24 64 36 97 11 33 24 69 29 80s17 43 26 70c10 28 23 64 30 80 49 118 74 200 62 207-6 4-63 8-125 8H879l-15-36c-8-19-26-72-41-117-14-45-33-88-41-94-18-14-407-19-428-5-7 4-29 56-49 117-20 60-41 115-47 122-10 13-198 17-240 6zm692-483c0-11-4-28-10-38-5-9-25-66-45-127-20-60-40-119-45-130s-12-35-15-52c-4-18-10-33-15-33-19 0-46 52-70 135-5 17-25 75-44 130s-36 108-36 118c0 15 13 17 140 17 134 0 140-1 140-20zM1287 25174c-4-4-7-260-7-570v-562l113-60c61-33 115-57 120-53 4 4 6 286 5 627l-3 619-111 3c-60 1-113-1-117-4zM6407 25174c-4-4-7-204-7-445v-439l25-6c30-8 161-1 171 8 3 4 9 22 13 40 8 38 27 39 75 4 67-49 114-61 231-61 94 1 116 4 150 23 59 32 69 42 103 102 44 79 52 157 52 484v286l-22 5c-13 3-68 5-123 3l-100-3-5-295c-4-249-8-300-21-325-25-45-48-61-105-74-43-10-61-10-102 2-28 9-62 23-76 32l-26 17-2 322-3 321-111 3c-60 1-113-1-117-4zM8028 25169c-17-9-18-36-18-344v-335h-53c-29 0-58-5-65-12-15-15-16-136-2-172 9-24 15-26 65-26h55v-45c0-75 31-207 56-241 40-52 98-74 197-74 102 0 215 37 265 86 16 17 16 17-19 74-34 55-60 63-109 35-37-21-86-19-110 5-18 18-20 31-18 88l3 67 108 5c81 4 110 9 117 20 5 8 10 52 10 97 0 97 8 92-140 96l-95 2-3 334c-2 253-5 337-15 343-18 11-209 9-229-3zM9715 25168c-3-7-4-209-3-448l3-435 92-3 92-3 16 31c17 33 36 38 55 15 7-8 17-15 23-15s19-8 30-17c28-26 206-26 234 0 11 9 24 17 31 17 17 0 101 101 95 116-3 7-46 36-96 65-88 49-93 50-117 35-74-47-112-59-150-47-70 21-70 23-70 369 0 226-3 311-12 320-17 17-217 17-223 0zM10891 25171c-12-8-10-22 13-88 16-43 34-92 42-110 8-17 14-35 14-41 0-5 7-23 15-38 8-16 15-37 15-46s4-19 9-22 12-18 15-33c8-31 153-428 166-453 4-9 11-30 14-48 4-17 12-34 17-37 5-4 9-13 9-22 0-8 6-29 14-46 7-18 30-78 51-134 20-56 44-104 52-107s57-6 109-6h94l16 38c9 20 20 48 24 62 5 14 18 50 30 80s26 71 32 90c5 19 14 39 19 45 5 5 9 18 9 30s7 30 15 41c8 10 15 28 15 39s6 29 14 40c7 11 16 31 19 45s15 50 26 80c22 54 43 113 103 280 34 94 47 129 78 210 44 114 52 142 42 152-5 5-62 7-126 6l-118-3-14-40c-18-48-43-130-51-165-10-47-23-50-240-50-190 0-204 1-223 20-11 11-20 27-20 36 0 17-46 157-62 187-7 15-24 17-116 17-59 0-113-4-121-9zm683-477c3-8 2-23-4-33-11-22-34-85-61-171-11-36-27-80-35-98s-14-41-14-52c0-25-19-36-35-19-17 18-133 360-128 377 4 9 40 12 138 12 112 0 134-3 139-16zM16193 25173c-10-4-13-100-13-433 0-376 2-430 16-444 11-12 36-16 90-16 80 0 114 18 114 59 0 31 17 34 52 8 83-62 114-72 243-71 144 0 189 17 272 100l53 52 22-26c33-39 97-85 147-107 36-16 68-20 161-20 110 0 119 1 158 27 58 39 90 75 120 138l26 55 4 331c3 283 2 332-11 342-10 9-47 12-118 10l-104-3-6-280c-7-297-12-329-61-382-32-35-104-47-173-29-60 15-128 56-142 84-4 10-10 150-13 312l-5 295h-230l-5-290c-6-365-11-380-135-406-51-10-70-10-124 4-108 28-101 3-101 363 0 300-1 314-19 324-20 10-195 13-218 3zM17927 25174c-4-4-7-204-7-445v-439l23-5c12-3 65-5 117-3l95 3v890l-111 3c-60 1-113-1-117-4zM21917 25174c-9-9-9-856-1-878 5-13 23-16 93-16 94 0 105 4 115 38 10 30 28 28 77-7 75-55 218-54 291 3 57 43 100 99 93 119-4 8-19 20-33 26-15 6-55 26-90 46-60 34-64 34-92 20-16-8-31-19-35-25-12-20-84-32-119-19-60 22-61 23-66 374l-5 320-111 3c-60 1-113-1-117-4zM23006 25148c-8-18-31-76-51-128s-43-109-51-127c-8-17-14-36-14-42s-4-19-10-29c-8-15-77-186-127-317-8-22-19-48-24-57-5-10-9-23-9-30-1-7-9-31-20-53-39-80-28-88 119-83l95 3 26 77c14 42 29 80 33 84s7 19 7 34c0 14 7 35 15 46 8 10 15 30 15 42 0 13 6 38 14 55 7 18 23 63 35 100 38 123 62 152 74 90 2-16 15-53 27-83s25-68 30-85c10-37 28-90 45-130 18-46 36-97 44-130 5-16 15-47 24-67l16-38h98c129 0 146 5 138 39-4 14-12 40-19 56-7 17-21 50-31 75-9 25-23 59-30 75-7 17-26 64-43 105-29 74-95 236-111 275-5 11-16 40-26 65s-23 59-30 75c-8 17-22 53-33 80l-21 50-95 3-95 3-15-33zM23735 25168c-3-7-4-209-3-448l3-435 104-3c67-2 108 1 117 9 12 9 14 86 14 444 0 386-2 434-16 439-31 12-214 7-219-6zM1689 24789c-16-30-8-157 11-169 8-6 122-10 252-10 274 0 258-6 258 104 0 104 23 96-261 96-243 0-249 0-260-21zM17967 24200c-57-26-77-62-77-141 0-62 2-68 36-102 22-21 51-39 71-43 183-34 267 211 99 287-50 23-80 23-129-1zM23820 24214c-89-29-120-69-120-154 0-93 51-145 145-145 48 0 67 5 92 24 45 34 66 83 61 141-6 60-31 94-90 120-47 20-61 22-88 14zM1409 23246c-44-30-64-75-64-142 1-93 60-152 153-154 59 0 104 21 137 64 54 71 40 179-31 235-40 32-146 30-195-3zM1797 23251c-48-31-69-78-69-147 0-74 24-116 80-140 49-21 134-14 170 13 36 26 72 91 72 129 0 54-28 117-63 142-44 29-148 31-190 3zM3909 23254c-48-31-69-74-69-146 0-78 26-124 80-144 146-52 265 49 230 196-8 35-22 58-46 80-31 27-41 30-102 30-43 0-76-6-93-16zM4290 23253c-59-40-84-113-66-190 13-56 37-85 85-102 78-26 161-3 200 55 20 28 25 48 25 98 0 70-20 114-64 140-39 22-147 22-180-1zM23640 23254c-14-9-33-27-43-40-40-54-37-177 5-218 46-45 128-58 195-31 101 41 123 199 38 274-32 28-42 31-103 31-43 0-76-6-92-16zM24010 23244c-57-48-77-117-56-188 16-53 39-79 85-95 76-25 159-6 197 46 28 38 37 83 29 144-6 39-15 57-43 84-33 33-38 35-108 35-64 0-76-3-104-26zM24920 23253c-58-41-84-107-70-183 17-95 126-145 227-105 99 40 121 196 39 273-33 30-41 32-104 32-48 0-75-5-92-17zM21675 23184c-120-19-266-100-350-194-179-200-221-494-108-752 13-29 26-41 57-52 44-15 135-34 204-43 47-6 53 4 28 54-58 115-81 277-55 390 49 215 218 333 433 302 149-22 235-90 275-218 7-22 11-180 11-440 0-223 3-415 6-426 3-12 25-30 52-43 26-12 89-45 141-72 51-27 97-47 102-44s9 233 9 522c0 475-2 522-19 582-56 197-195 338-401 409-52 18-93 23-210 26-80 2-158 1-175-1zM3035 22765c-86-12-164-45-231-95l-41-31-54 29c-93 50-175 62-418 62-240-1-331-15-414-63-47-28-81-34-91-18-10 15-89 50-142 62-27 7-150 14-274 16-307 6-414-17-521-114l-40-36-67 34c-65 32-71 33-187 34-95 0-130-4-170-19-131-51-213-135-279-289-21-49-31-230-18-312 19-111 62-194 146-277 51-51 71-64 160-103 43-19 202-26 269-12 36 8 38 7 48-22 8-24 28-39 92-72 200-104 198-103 208-88 5 8 9 205 9 439 0 422 0 425 23 465 36 64 75 74 302 74 176 0 193-1 235-22 75-37 79-52 80-337 0-135 3-255 6-267 4-13 24-30 52-43 26-11 89-43 141-70 51-28 97-47 102-44s9 146 9 323c0 211 4 329 11 352 16 47 53 84 98 98 51 15 387 15 432 0 85-29 109-88 109-268 1-84 6-140 15-166 8-22 15-48 15-58 0-32 64-139 119-199 38-42 75-69 125-94 63-30 85-35 172-40 184-11 285 22 389 126 51 50 102 137 129 220 14 45 33 203 39 332 2 49 9 75 23 95 39 53 62 58 279 61 182 3 205 1 247-17 80-34 82-44 88-355l5-269 105-54c58-30 120-63 138-73 65-39 62-54 62 313 0 182-5 361-11 396-29 179-156 308-341 346-60 13-124 15-305 12-248-4-303-12-387-57l-56-30-33 22c-17 13-34 26-37 29-7 8-60 35-105 53-61 24-169 33-260 21zm167-313c69-45 101-136 101-287 0-107-16-172-55-228-24-34-89-67-133-67-45 0-109 33-135 70-30 42-60 160-59 235 0 71 26 176 55 226 12 19 36 43 55 52 46 22 136 22 171-1zm-2525-95 33-22v-182c0-204-1-206-71-230-77-28-160-7-201 49-46 65-51 81-51 178 0 78 3 102 21 137 23 43 64 79 110 94 41 13 123 1 159-24zM4835 22720c-6-9 25-78 88-196 54-102 32-94 262-94 214 0 239-4 281-51 16-18 19-35 17-124-1-93-4-109-33-166-40-82-84-135-154-184-30-22-56-47-56-55s9-28 21-45c11-16 34-56 52-89 18-32 38-69 45-82s20-24 28-24c15 0 59 25 82 47 7 7 18 13 23 13 15 0 150 143 188 200 53 78 84 153 110 263 16 68 14 245-4 312-16 64-46 135-55 135-4 0-12 11-17 23-17 37-110 92-188 110-57 14-125 17-377 17-186 0-309-4-313-10zM6524 22711c-126-31-225-104-274-203-55-110-54-96-58-648-2-283 0-528 3-545 5-27 20-37 143-98 75-38 143-68 150-68 9 1 12 122 12 569 0 480 3 574 15 611 35 100 41 101 539 101 403-1 412-1 455-23 72-36 86-63 85-165-1-75-5-93-28-134-50-87-123-133-254-162-68-15-81-15-175 0-56 9-114 23-128 30-15 7-29 10-33 7-3-4-6-72-6-151v-145l62-71c34-39 72-80 83-91s45-49 75-84c30-36 66-77 80-91 14-15 65-71 114-124l89-96h143c79 0 144 4 144 9 0 9-36 59-56 76-6 6-44 48-84 95s-82 95-94 106c-27 27-133 148-157 178s-14 39 61 56c70 16 137 40 175 63 90 54 225 182 225 212 0 6 5 16 12 23 31 31 68 197 68 309 0 155-37 253-129 343-50 49-81 70-126 86-119 43-139 44-608 43-390-1-462-3-523-18zM8133 22714c-6-17 62-165 112-244l25-40h148c102 0 152-4 160-12 9-9 12-111 12-398 0-212 4-390 8-396 4-5 23-19 42-31 44-26 250-133 256-133 2 0 4 213 4 473 0 259 4 478 9 486 6 10 30 12 97 9 113-4 175-31 204-89 19-36 20-61 20-526 0-556-6-515 88-562 32-15 87-44 124-64 119-66 108-117 108 486 0 542-6 653-41 747-40 109-133 213-229 257-19 8-69 24-110 34-67 16-123 18-553 19-433 0-478-2-484-16zM10002 22718c-18-18-18-1397 1-1420 22-29 278-161 290-149 4 4 6 360 5 792l-3 784-140 3c-101 2-144-1-153-10zM11695 22720c-11-5-31-9-45-9-85-3-213-110-270-226l-35-70-3-183c-2-101-1-194 2-207 4-16 23-32 59-49 28-14 90-46 136-70 47-25 88-43 93-40 4 3 8 98 8 212 1 249 11 292 75 326 39 20 54 21 505 21 435 0 467-1 503-19 66-33 71-55 77-355l5-263 80-44c44-24 87-46 95-50 25-10 34-14 70-33 19-11 38-17 43-14 4 2 7 171 7 374v370l-31 75c-54 130-160 215-312 249-56 12-153 15-555 14-268 0-496-4-507-9zM13905 22715c-96-22-155-53-216-116-66-67-104-140-118-230-16-99-15-1050 2-1073 7-9 37-30 67-46 126-66 215-108 222-104 5 3 8 265 8 582 0 549 1 579 20 620 15 34 29 46 65 62 41 17 69 20 226 20 212 0 266-12 299-65 18-29 20-49 20-195 0-252 34-363 141-465 31-30 83-66 115-81 55-26 69-28 199-28l140-1 76 37c182 89 279 274 279 527-1 297-128 491-362 552-40 10-93 19-117 19-70 0-201-30-262-60l-57-28-55 28c-97 49-176 60-416 59-139-1-237-6-276-14zm1130-306c53-25 77-61 99-145 21-83 20-169-4-246-22-73-46-103-104-129-52-23-80-23-132 0-69 31-76 59-72 280 3 172 5 191 23 211 46 51 120 62 190 29zM15697 22723c-14-13-6-42 28-104 19-35 49-92 66-126l30-63h206c236 0 269-7 297-67 21-44 21-139 0-211-29-99-90-181-198-263l-43-34 22-35c12-19 39-66 59-105 21-38 46-79 57-89 18-19 19-19 54 0 20 10 51 32 68 47 18 16 49 43 70 60 124 105 212 280 231 457 10 92 32 162 59 188 46 44 104 52 368 52 343 0 491-23 654-100 76-36 200-126 219-157 17-31-130-209-204-247-64-33-143-56-189-56-80 0-207 44-278 96-17 13-35 24-39 24s-29 18-55 40-50 40-53 40-6-60-6-133c0-152-7-138 115-228 104-77 184-108 299-115 162-10 280 26 416 126 86 64 138 119 248 265 4 6 24 38 45 71 33 56 37 68 37 132 0 70-1 71-45 119-24 26-45 51-45 55 0 16 63 38 152 53 129 21 396 20 469-1 58-17 78-33 103-82 14-27 16-91 16-521 0-269 3-497 6-506 4-8 23-24 43-34s80-41 135-70c54-29 106-51 115-49 15 3 16 58 21 600 5 578 6 597 25 618 43 48 95 60 257 60 221 0 274-20 311-118 15-37 17-100 17-526 0-375 3-486 13-493 13-11 146-84 220-121 26-13 54-21 62-18 13 5 15 77 15 538-1 537-6 645-37 728-40 108-129 207-229 254-88 42-154 51-374 51-224 0-291-10-368-52-26-14-57-31-70-38-21-11-30-9-80 21-31 19-72 38-92 43-19 4-56 13-83 19-71 18-388 15-499-4-51-8-111-22-134-29-54-18-140-69-187-111-20-19-42-34-48-34s-41 15-78 34c-240 123-412 156-824 156-310 0-400-15-500-83l-27-19-53 34c-94 62-139 68-480 68-167 0-307-3-310-7zM23285 22718c-91-23-158-55-212-102-30-27-59-59-64-70-5-12-18-36-29-53-46-77-50-131-50-677 0-579-9-520 85-568 28-14 75-38 105-55 30-16 69-35 87-40 28-10 32-9 37 10 3 12 6 283 6 602l1 580 22 27c39 48 90 58 289 58 201 0 258-11 293-58 19-25 20-45 23-300l3-272 37-23c21-12 47-27 57-34 47-28 202-103 212-103 9 0 13 89 15 353 3 332 4 353 23 378 36 47 93 59 289 59 209 0 263-12 296-65 19-30 20-49 20-294 0-299-7-274 100-330 36-18 94-48 129-67s70-34 77-34c12 0 14 61 14 338 0 387 1 390 80 429 40 20 61 22 200 22 209 1 266-17 309-94 14-27 16-88 19-533l3-503 32-19c18-11 59-34 92-51s74-38 90-48c17-10 45-23 63-29l32-11v552c0 606-5 667-56 772-38 77-133 173-204 207-97 45-182 58-377 58-202 0-279-13-381-63l-62-31-58 31c-94 51-176 63-418 63-240 0-310-11-411-62l-63-32-62 32c-105 53-171 62-426 61-125-1-245-6-267-11zM26526 22714c-3-9-6-327-6-708 0-538 3-696 13-708 25-33 261-153 283-144 12 5 14 122 14 771 0 509-3 773-10 786-10 17-23 19-149 19-117 0-140-2-145-16zM21747 21646c-71-26-107-80-107-161 0-58 27-105 76-136 47-28 135-24 182 10 93 66 82 229-18 278-52 26-80 27-133 9zM11970 21570c-81-15-122-69-122-161 0-49 5-66 27-94 43-57 141-83 198-54 56 29 97 91 97 148 0 113-86 182-200 161zM12297 21551c-38-25-59-57-67-103-9-49 4-123 27-147 48-50 141-66 205-35 98 47 115 200 31 274-30 27-41 30-101 30-48 0-75-5-95-19zM17620 21373c-63-24-81-38-101-80-32-67-24-142 21-189 58-59 147-68 218-21 85 57 79 231-9 274-30 14-109 24-129 16zM324 21311c-49-22-79-62-87-116-10-65 2-111 40-150 33-34 36-35 112-35 73 0 80 2 114 33 54 47 68 109 42 185-18 50-25 60-65 80-54 27-101 28-156 3zM696 21307c-73-41-101-147-61-230 24-50 59-67 142-67 61 0 72 3 104 30 60 48 72 156 26 231-34 57-143 75-211 36zM8504 21289c-3-6 6-37 22-70 26-52 32-59 66-64 36-6 50-26 28-40-5-3-10-28-10-54 0-147 153-246 280-181 47 24 60 45 60 100 0 50-17 59-66 35-43-20-102-14-121 12-17 23-16 85 1 109 13 16 29 19 130 22 64 2 116 6 116 9 0 21-68 123-84 127-41 11-415 6-422-5zM175 19990c-7-11-6-18 35-150 16-52 43-142 61-200 17-58 37-123 44-145 14-44 34-110 60-200 10-33 24-78 30-100 7-22 21-67 30-100 10-33 21-69 25-80 13-37 38-119 75-250 21-71 44-144 51-162 8-17 14-37 14-45 0-18 34-106 46-117 5-5 45-21 89-36s94-33 112-41c17-8 40-14 50-14s23-4 28-9c6-4 57-23 115-40 104-32 124-38 270-84 41-14 111-34 155-47 44-12 98-28 120-35 38-12 101-29 225-62 57-15 124-33 213-57 45-13 206-51 317-76 137-32 235-53 300-66 41-8 107-22 145-29 39-8 98-19 131-25 34-5 74-14 88-20 15-5 45-10 67-10s48-4 57-9 53-14 97-20 107-15 140-21c87-15 243-39 290-45 22-2 87-11 145-19s150-19 205-25 136-16 180-22 130-15 190-19c61-5 157-13 215-19 489-48 1185-68 1884-52 862 18 1250 38 1711 87 77 8 165 17 195 20 30 2 84 9 120 14s117 17 180 26 138 20 165 25c28 5 85 14 129 19 43 6 83 13 88 16 6 4 35 10 66 14 32 4 77 12 102 18s81 19 125 28c107 22 173 37 345 79 133 33 174 44 340 91 30 9 69 19 85 24 17 4 40 12 52 18 12 7 31 12 42 12s35 6 53 14 78 28 133 46c55 17 116 37 135 45s94 35 165 60c72 26 139 50 150 55s45 19 75 31 69 28 87 35c17 8 33 14 36 14s36 14 74 31c37 17 82 37 100 45 17 8 33 14 36 14 5 0 102 45 297 137 118 56 159 76 285 143 176 93 209 111 270 145 33 19 67 37 75 41 17 8 316 189 358 216 15 10 34 21 42 25 41 19 613 412 630 432 3 3 23 18 45 33s52 38 67 50c15 13 36 30 47 38 114 86 127 100 94 100-16 0-83-21-128-41-59-25-646-208-845-263-149-41-178-49-220-61-25-7-79-20-120-30-41-9-93-24-115-31-23-8-50-14-60-14-11 0-40-6-65-14s-79-22-120-31-102-22-135-30c-127-30-259-57-425-90-47-9-114-23-150-31s-81-14-100-14c-19-1-53-7-75-15s-56-15-75-15c-20 0-62-7-93-15-32-8-78-15-102-15s-70-7-102-15c-31-8-81-15-110-15-28 0-62-4-75-10-13-5-70-14-128-20s-159-17-225-25c-745-84-1529-120-2600-120-892 0-1437 24-2210 96-60 6-153 14-206 19-53 4-136 13-185 19s-152 18-229 26c-77 9-171 20-210 26-38 6-106 15-150 19-44 5-98 13-120 19s-63 11-92 11c-28 0-64 5-78 10-15 6-61 14-103 19-93 11-203 28-297 46-38 7-115 21-170 30s-131 23-170 30c-38 8-108 21-155 29-165 31-245 48-285 58-22 6-62 14-90 18-27 5-68 13-90 18-22 6-76 18-120 27s-109 23-145 32c-36 8-92 21-125 29-233 54-517 124-581 144-16 6-50 14-75 19-24 5-70 17-101 25-32 9-82 22-110 30-75 21-264 75-323 93-27 8-71 20-97 26-25 7-50 15-54 20-4 4-14 7-23 7s-59 13-111 30c-52 16-147 46-210 66s-155 50-203 65c-98 32-103 33-112 19zM26735 19966c-55-18-147-48-205-66s-114-36-125-41c-11-4-38-12-60-18-22-5-62-17-90-25-27-8-74-22-102-31-29-8-75-22-103-30-119-36-158-47-210-61-30-8-79-22-107-30-112-31-170-46-212-55-25-5-59-13-75-19-58-18-142-39-356-90-118-28-231-55-250-60-64-16-204-48-265-60-33-6-85-17-115-25-70-17-150-33-218-45-29-4-74-13-100-19-26-5-85-17-132-26s-105-21-130-26-85-16-135-25c-49-8-126-22-170-30-44-7-114-18-155-24s-91-15-110-20c-19-6-55-10-80-10s-61-5-80-11c-19-5-69-14-110-19-41-4-108-13-147-19-179-27-223-33-308-41-49-4-101-11-115-14-14-4-70-11-125-16s-165-16-245-25c-153-16-380-36-620-54-80-6-203-16-275-22-71-6-236-14-365-19s-320-14-425-20c-244-13-1316-13-1590 0-115 5-334 14-485 19-151 6-342 15-425 21-363 25-707 55-880 75-66 8-160 19-210 24-49 6-101 13-115 17-14 3-61 10-105 14-83 8-168 21-295 46-42 8-88 14-104 14-15 0-55 7-89 15s-93 19-132 26c-127 21-352 66-570 115-75 17-117 26-205 45-30 6-72 18-93 25-20 8-49 14-63 14s-34 5-45 11-41 14-67 19-74 16-107 25-82 23-110 30c-102 28-243 67-340 96-55 16-125 37-155 46-30 8-71 21-90 28s-96 32-170 55c-119 36-181 57-345 116-45 15-75 18-75 7 0-5 30-30 66-58 36-27 80-62 97-77 18-15 35-28 38-28s17-10 30-21c13-12 35-29 49-38 22-14 207-147 235-168 15-12 287-192 400-265 97-63 373-228 380-228 2 0 32-17 67-37 123-72 541-285 728-371 153-70 202-92 206-92 3 0 26-9 52-21 26-11 63-27 82-35s43-19 52-24c10-6 23-10 28-10 11 0 91-33 122-50 10-6 23-10 29-10s25-6 42-14c18-8 46-19 62-24 17-6 68-24 115-41 126-46 289-101 301-101 6 0 25-6 42-13 33-14 97-34 202-63 33-9 78-22 100-29 47-15 133-37 343-89 96-24 208-49 412-92 68-14 163-31 215-40 62-9 222-35 275-44 30-5 82-12 115-15s105-12 160-20c201-27 583-62 824-75 465-25 629-31 1136-41 851-19 1485 6 2270 87 200 21 502 59 660 85 39 6 86 13 105 15 68 8 261 41 435 75 33 6 85 15 115 19s73 12 95 18 76 18 120 27c174 36 222 46 265 57 25 6 61 14 80 18 156 35 246 57 317 76 134 36 161 43 198 53 45 11 174 47 220 60 17 5 66 19 110 31 44 13 112 33 150 45 39 13 104 33 145 45s90 28 108 36 41 14 52 14c10 0 21 4 24 9 4 5 24 12 46 16s42 10 45 15 23 11 45 15 42 10 45 15c3 4 22 11 42 15 21 4 42 10 48 13 5 4 30 14 55 22 60 20 60 20 147 315 8 28 19 68 25 90 5 22 14 49 18 60 5 11 18 54 30 95 27 93 33 112 69 230 16 52 43 142 61 200 17 58 38 125 45 150 8 25 29 92 46 150s35 119 41 135c14 44 38 135 38 145 0 16-30 11-135-24z"/><path d="M13321 19353c0-7-5-13-11-13-5 0-60-34-121-75-62-41-114-75-117-75s-13-6-21-14c-9-8-32-22-51-33-19-10-73-43-120-73-95-61-86-55-230-142-142-86-143-86-160-94-8-4-44-25-79-47-36-21-72-42-80-45-9-4-47-25-86-47-129-73-762-393-910-460-27-12-80-36-117-54-37-17-70-31-73-31s-33-13-67-29c-99-45-444-188-550-227-45-17-102-38-160-60-24-9-58-22-76-30s-39-14-47-14c-7 0-26-6-42-14-32-16-23-13-308-107-115-39-235-77-265-86-30-8-75-21-100-29-25-7-70-21-100-30s-77-23-105-31c-27-8-75-22-105-30s-80-21-110-30c-30-8-80-20-110-27s-75-19-100-25c-103-28-149-39-225-56-44-9-95-21-112-26-18-6-54-14-80-19-27-5-79-16-118-24-361-73-701-132-990-170-66-9-151-21-190-26-38-6-115-15-170-20s-143-14-195-19c-792-81-1798-82-2630 0-52 5-142 14-200 19s-139 14-180 20c-41 5-149 19-240 31-91 11-187 24-215 29-27 5-86 14-130 20-157 20-283 40-460 71-99 17-204 35-233 39-29 5-74 13-100 19s-72 15-102 20c-30 6-120 24-200 42-80 17-156 33-170 36-37 7-250 58-370 88-58 15-123 30-145 34s-56 12-75 18c-41 13-133 38-173 47-30 7-47-14-30-37 6-6 27-43 48-82 21-38 49-88 62-110 12-22 29-53 37-70 8-16 28-52 44-80 16-27 46-81 67-120 21-38 57-104 80-145s59-106 80-145c21-38 46-83 56-100 10-16 31-55 47-85 34-66 71-132 142-260 30-52 63-113 75-135s46-83 75-135c30-52 67-120 84-151 59-108 49-104 346-139 47-6 141-17 210-25 578-69 1201-105 1950-112 511-5 920 7 1230 38 58 6 157 15 220 20 266 21 734 86 1040 144 47 9 121 22 165 30 124 23 372 78 550 121 33 8 80 19 105 24 37 7 146 35 340 86 14 4 63 18 110 31 47 14 110 31 140 39s69 18 85 23c17 4 40 13 52 19 12 7 31 12 42 12s35 6 53 14c35 15 172 62 223 76 42 12 95 30 130 45 17 8 57 23 90 34 91 30 209 76 300 115 17 8 50 21 75 31 25 9 52 21 61 25 9 5 61 27 115 50 333 142 733 348 1072 552 90 54 165 98 167 98s23 13 47 28c249 164 396 263 462 310 139 100 361 265 366 272 3 4 37 31 75 61 39 30 81 64 95 76s59 50 101 85c230 190 387 335 659 608 340 340 595 626 587 657-3 10-5 12-6 6zM13700 19350c0-5 4-10 9-10s11-8 14-17c10-36 319-375 582-638 272-272 299-297 435-414 41-36 80-70 85-75 20-21 252-214 345-287 52-40 97-77 98-81 2-5 10-8 18-8s14-4 14-8c0-17 437-326 688-486 114-74 447-273 521-312 36-19 86-47 111-61 61-34 461-235 533-267 31-14 83-38 115-52 109-49 138-62 252-109 63-26 127-53 142-61 14-8 35-14 46-14 12 0 23-4 27-10 3-5 20-14 38-19s57-19 87-31 107-39 170-60c63-22 131-44 150-51s51-17 70-24 62-21 95-30c33-10 74-24 92-32 17-7 42-13 55-13s28-4 33-9c6-5 30-14 55-19 25-6 70-18 100-27s78-23 105-30c215-57 337-88 375-95 25-5 74-17 110-26s94-22 130-29c36-8 97-21 135-30 180-40 404-84 615-121 114-19 378-58 515-74 44-5 132-16 196-25 64-8 133-15 155-15 21 0 107-6 189-15 592-58 1600-60 2370-4 83 6 206 15 275 19 195 13 556 51 815 85 66 8 148 19 183 23 72 10 78 15 122 97 82 152 105 193 127 227 12 21 23 40 23 42 0 3 41 78 91 168 51 90 107 192 126 228s38 72 43 80c10 16 177 317 227 410 17 30 42 75 55 100 14 25 48 86 75 135 28 50 62 110 75 135 47 83 68 125 68 132 0 13-70 9-124-8-103-32-122-38-161-45-22-5-67-15-100-23-33-9-168-40-300-70-132-31-268-62-302-71-34-8-73-15-88-15-14 0-34-4-43-9-10-5-49-14-87-20-39-6-104-18-145-26-143-29-511-89-735-120-214-29-262-36-325-45-36-6-108-15-160-21-52-5-151-16-220-24-1043-115-2052-115-3100 0-69 8-168 19-220 25-52 5-107 13-122 16s-71 12-125 20c-196 28-477 76-688 118-44 9-93 18-110 22-28 5-81 16-230 49-144 32-281 65-371 91-28 8-58 14-67 14s-36 6-59 14c-24 7-72 21-108 31-73 20-141 38-215 60-27 8-72 21-100 28-80 23-257 78-295 92-58 21-283 95-315 105-49 14-98 32-127 46-14 8-35 14-45 14-11 0-28 7-39 15-10 8-27 15-36 15-10 0-32 6-50 14s-53 22-78 31c-25 10-54 21-65 25-11 5-74 30-140 56s-139 55-162 65c-23 11-48 19-56 19s-20 7-27 15-22 15-34 15-26 4-32 9c-5 5-34 19-64 31-58 24-108 46-225 100-38 18-86 39-105 47-48 21-639 315-725 362-185 99-395 217-460 259-11 6-29 16-40 21s-37 21-58 35-41 26-45 26-37 20-73 43c-36 24-72 47-80 51-29 14-97 58-301 192-86 57-162 104-167 104-6 0-11 5-11 10 0 6-4 10-10 10-5 0-10-4-10-10z"/><path d="M13285 18783c-104-124-697-724-839-848-37-33-83-73-101-90-59-56-170-152-245-214-41-35-84-70-95-79s-42-35-70-57c-27-22-56-46-63-52-17-17-421-319-492-369-157-110-574-384-584-384-3 0-24-13-48-29-24-15-62-39-85-52s-82-47-130-75-95-53-103-57-28-16-45-27c-16-11-37-23-45-26s-35-17-60-31c-42-23-532-264-575-283-11-5-49-22-85-38s-90-40-120-52c-51-21-74-30-140-59-14-6-50-20-80-31s-64-25-75-30c-54-24-341-127-380-136-16-4-34-10-40-14-5-4-25-11-43-15s-45-13-60-21-36-14-48-14c-11 0-24-3-28-7s-26-13-49-19-64-18-92-27c-74-22-163-47-220-62-78-20-398-103-420-109-11-2-56-12-100-21s-109-23-145-30c-390-81-645-123-1095-180-231-29-311-37-452-45-78-4-147-11-153-15-7-4-107-11-223-16-117-5-252-14-302-18-125-13-1550-12-1650 0-44 5-159 14-255 19s-195 14-220 19c-59 13-147 14-155 1-3-5 12-29 34-52 21-24 50-56 62-73 13-16 28-35 34-41 111-120 182-199 188-209 4-8 20-27 35-42 36-38 142-158 232-263 40-47 83-94 94-105 12-11 64-70 116-130 52-61 109-126 126-145s71-80 120-135c48-55 91-102 94-105s30-34 60-70 67-77 82-92l28-28 202 1c273 0 706 15 853 28 66 6 199 19 295 27 96 9 214 22 263 30 48 8 106 14 130 14 23 0 69 7 100 15 32 8 72 15 89 15 35 0 179 24 275 46 34 8 72 14 85 14s52 6 88 14 101 22 145 31c165 34 336 71 415 90 30 8 89 22 130 31s94 23 118 31c23 7 50 13 59 13 8 0 36 7 62 14 25 8 73 23 106 32s71 20 85 24c14 5 59 18 100 31 126 38 413 133 465 154 17 7 71 27 120 45 50 18 94 37 100 42 5 4 15 8 23 8s28 6 45 14c18 8 60 26 94 40 35 15 89 38 120 52 32 14 72 31 88 39 105 46 178 81 410 196 143 70 278 139 300 151s96 54 165 93 132 74 140 78c18 9 40 22 97 60 24 15 47 27 52 27s11 4 13 8 21 19 43 32 78 49 125 79c47 31 93 61 102 66 22 13 166 113 181 126 7 5 86 64 176 131 475 349 925 772 1309 1226 40 48 82 97 92 109 27 31 212 271 230 296 7 12 44 63 80 112 59 80 168 242 195 287 5 9 49 81 97 160 96 159 115 191 153 262 86 158 163 307 180 346 10 25 25 52 32 61 7 8 13 23 13 31 0 9 7 21 15 28s15 18 15 26c0 13 49 127 76 176 15 28 19 68 6 68-4 0-26-21-47-47zM13696 18822c-2-4 2-23 11-42s29-64 45-100c30-67 271-553 288-580 5-8 59-98 120-200s116-194 123-205c18-30 190-289 199-300 5-5 65-86 135-180 69-93 129-172 133-175 3-3 24-27 45-55 46-57 57-70 151-180 172-201 407-442 624-641 35-32 73-68 85-80 11-11 61-53 110-94 50-40 95-78 100-84 34-38 431-339 598-454 111-77 372-246 418-271 24-13 58-34 76-47 17-13 34-24 38-24 3 0 22-11 43-23 20-13 73-43 117-67s94-51 110-61c17-10 80-43 140-74 61-30 126-64 145-75 33-18 230-113 380-182 69-32 77-35 155-68 28-12 59-25 70-30 27-12 100-42 155-65 25-10 59-23 75-30 17-7 53-21 80-30 28-10 55-22 60-25 6-4 21-10 35-13 27-6 102-32 135-47 25-11 165-57 305-100 58-18 123-38 145-45s69-20 105-30c36-9 85-23 110-30 42-13 78-22 225-58 125-31 161-40 200-48 22-4 83-17 135-29 162-35 374-78 445-90 147-24 196-33 256-46 37-8 82-14 100-14 19 0 52-5 74-11s74-14 115-18c176-19 289-32 355-41 39-6 133-15 210-20s194-14 260-19c66-6 300-13 521-17l402-7 28 30c27 27 96 105 184 207 19 23 40 46 46 51 6 6 44 48 85 95 40 47 94 108 119 135 25 28 70 79 100 114 30 36 80 92 110 126 30 33 84 94 120 134 36 41 99 113 141 160 41 47 89 101 105 120s36 42 44 51 30 34 49 55c19 22 60 69 92 105 88 98 90 100 84 110-8 13-89 12-140-1-22-5-125-14-230-19-104-6-226-14-270-19-105-12-1533-12-1650 0-49 5-184 14-300 19-115 5-228 14-250 19-22 6-71 11-110 11-74 0-283 21-451 45-56 8-116 15-134 15s-73 7-124 15c-50 9-136 22-191 31-208 32-432 72-655 119-36 7-101 21-145 30s-93 21-110 26c-16 5-50 13-75 18-54 12-243 60-355 91-44 13-91 25-105 28-14 2-29 8-35 12-5 4-26 11-45 15-38 7-56 13-265 81-157 51-294 100-342 120-17 8-35 14-41 14-5 0-23 7-38 15-16 8-36 15-44 15-9 0-20 4-25 8-6 5-32 17-60 27-51 18-95 36-150 60-16 7-55 23-85 35s-84 36-120 52-74 33-85 38c-61 27-562 277-630 314-44 25-102 57-130 72-64 35-102 56-124 69-54 32-237 143-259 157-15 10-34 21-42 25-8 3-17 9-20 13-3 3-23 17-45 30-47 27-264 170-282 185-7 6-42 30-78 55-135 92-535 394-645 487-14 11-81 67-150 124-118 98-146 122-280 245-30 28-73 66-95 85-59 50-641 634-706 709-83 95-135 150-142 150-3 0-8-4-11-8zM12193 15115c-87-32-240-110-418-212-22-12-47-26-55-30-8-3-17-9-20-12s-27-21-55-40c-99-68-185-164-185-207 0-13 7-45 15-71s22-70 31-98c9-27 22-67 30-87 16-44 38-102 58-155 18-48 73-188 92-231 28-67 42-98 57-134 18-41 37-48 58-22 7 9 40 37 74 62 33 25 62 49 65 52 6 8 188 131 210 143 8 4 24 13 35 20s52 30 90 51c179 98 239 156 271 258 17 54 17 62 0 170-17 107-27 147-62 263-48 155-106 250-175 285-46 24-39 24-116-5zM13226 14680c-282-142-415-223-498-306-68-67-69-88-14-274 9-30 21-68 26-85 11-41 32-99 77-220 41-108 80-187 117-231 29-35 37-37 91-14 11 4 56 22 100 40s108 46 143 61c34 16 64 29 67 29 8 0 265 128 297 148 106 66 165 120 175 161 9 36-33 247-68 339-5 13-9 31-9 40s-6 29-14 44-17 42-21 60-10 38-14 43c-4 6-18 37-31 70s-33 76-45 95-25 45-29 58c-4 12-11 22-16 22s-11 8-14 18c-3 9-14 22-25 29-15 10-59-9-295-127zM15045 14696c-143-70-325-156-475-223-30-14-80-36-110-50s-71-32-90-41c-50-23-126-78-160-115-54-59-60-116-25-227 7-25 20-72 29-105 8-33 22-88 30-122 17-67 37-147 60-240 16-62 41-171 51-215 8-39 33-36 103 11 84 57 183 110 444 235 53 25 99 46 102 46 25 0 244 118 274 147 7 7 21 18 30 25 10 7 32 31 50 53 32 39 32 41 32 145 0 135-37 338-79 435-78 178-141 275-178 275-10 0-49-16-88-34zM19100 12990c-19-19-20-33-20-192 0-95 7-249 15-343 17-202 19-365 5-541-25-301-30-354-44-449-26-181-37-249-46-295-5-25-11-63-14-85-8-56-34-234-51-335-32-199-37-228-46-295-9-68-21-152-54-365-9-58-22-148-30-200s-21-138-29-190c-16-100-38-248-62-415-14-93-27-183-54-360-12-84-24-164-45-310-9-60-22-150-30-200-21-136-37-246-42-285-2-19-10-75-18-125-8-49-21-139-30-200-9-60-22-153-30-205-37-253-46-313-60-420-9-63-23-152-31-197-7-45-14-94-14-110 0-15-7-64-15-108s-21-134-30-200c-23-170-42-306-60-410-22-137-59-418-75-585-6-58-15-127-20-153-6-26-10-72-10-102 0-29-7-89-15-132s-15-100-15-128c0-27-5-68-10-90-6-22-14-83-19-135-13-130-38-341-45-370-3-14-10-68-16-120s-17-144-24-205c-8-60-20-155-26-210-17-149-32-191-169-450-52-96-53-102-48-160 3-33 11-80 17-105 5-25 24-103 40-175 17-71 37-152 45-180 8-27 21-75 30-105 61-225 72-250 108-250 23 0 69 40 91 78 24 42 712 1420 725 1453 8 19 27 62 42 96 16 34 29 65 29 69 0 3 6 20 14 37 28 62 56 157 62 209 5 46 3 56-15 72-19 18-22 18-63 1-52-20-149-93-280-209-104-92-133-105-124-59 3 16 10 71 16 123 12 101 32 251 55 415 8 55 17 116 19 135 17 135 28 211 37 250 5 25 14 79 19 120 8 70 21 157 55 370 7 47 18 123 24 170 7 47 14 93 17 103s12 59 19 110c17 114 42 275 60 387 8 47 21 128 29 180s20 124 26 160 15 94 20 130 15 94 21 130 15 92 19 125 12 83 18 110c11 48 23 131 43 280 5 39 13 90 18 115 6 25 17 92 25 150 9 58 21 137 27 175 6 39 17 111 24 160 8 50 21 137 30 195s18 121 21 140c2 19 11 76 19 125 13 83 36 238 50 345 4 25 22 151 41 280s41 285 50 345c8 61 22 157 30 215 34 239 46 330 54 425 4 55 13 113 19 128 6 16 11 59 11 96s7 93 15 124c8 32 15 86 15 120s7 134 15 222c18 190 20 914 4 1070-6 55-14 138-19 185-10 105-28 210-46 272-8 26-14 55-14 65 0 9-6 35-14 58-7 22-21 65-31 95s-40 100-67 155c-73 147-91 175-125 194-19 10-26 8-43-9zM10965 12994c-11-2-47-9-80-15-84-15-208-49-219-60-6-5-16-9-23-9-19 0-197-89-263-132-315-203-631-558-817-918-33-63-70-140-83-171l-22-56-112-6c-194-10-373-44-569-108-32-11-65-23-75-28-9-4-34-15-55-25-207-91-365-200-532-370-127-129-129-131-215-251-71-99-87-122-97-145-4-8-26-46-48-85-37-63-58-105-115-230-50-109-103-264-153-445-25-93-57-252-87-435-11-73-21-182-41-445-33-446 47-1193 151-1415 38-79 53-97 81-93 52 7 74 173 45 335-20 106-43 251-57 353-17 127-23 546-10 670 25 228 30 267 39 310 6 25 18 79 27 120 37 168 119 390 188 505 6 11 25 43 41 70 101 169 265 349 406 445 19 13 37 27 40 30 7 8 148 91 190 112 286 139 534 202 915 233 220 18 404 18 590 0 168-16 225-26 490-85 28-6 58-15 67-20 10-6 23-10 30-10 23 0 332-103 423-140 67-28 103-43 215-90s570-269 660-319c19-11 78-44 130-72 138-76 142-78 175-99 17-10 41-25 55-32 14-8 103-61 198-119l190-114c10-5 45-28 77-49 33-22 89-58 125-81 125-81 236-154 300-200 36-26 83-58 105-73 33-22 167-121 294-217 98-74 275-224 428-363 188-171 437-470 482-578 10-26 10-40-4-88-17-59-165-356-205-411-9-13-51-88-103-185-22-41-43-80-48-85-18-24-239-477-239-491 0-4-10-28-21-53-27-56-42-93-64-151-10-25-23-58-30-75-7-16-21-52-30-80-10-27-22-54-27-59-4-6-8-16-8-24 0-7-8-32-19-55-10-23-33-82-51-132-17-49-35-97-40-105-4-9-11-30-14-47-4-18-24-47-47-67-41-38-50-76-28-117 5-11 14-43 20-72 5-29 16-86 24-127s20-104 25-140c6-36 14-87 20-115 5-27 17-95 26-150 14-88 33-135 54-135 15 0 136 126 542 560 150 161 230 259 226 279-3 14-25 16-161 16-95 0-158 4-161 10-2 6 14 42 34 80 21 39 54 104 75 145 20 41 41 82 46 90s12 22 15 30 10 22 14 30c39 64 259 513 300 612 28 68 57 137 65 153 11 25 48 138 86 262 5 17 14 69 20 115 5 45 14 124 20 173 12 94 6 289-11 385-13 73-29 155-40 210-14 65-71 243-81 255-5 5-9 15-9 23 0 7-9 34-21 60-11 26-27 63-35 82-9 19-21 46-27 60-13 29-236 328-283 380-17 19-71 80-119 135-98 111-365 378-470 470-38 33-85 74-105 91-19 17-48 42-64 55s-46 38-65 54c-20 17-56 46-81 65s-47 37-50 40c-14 15-268 205-320 240-12 8-41 29-64 46-22 16-95 66-161 110-66 43-124 82-130 87-42 31-391 247-401 247-2 0-23 12-47 27-46 30-46 30-162 93-44 24-105 57-135 73-83 45-194 101-295 147-186 86-191 88-280 125-19 8-50 21-67 29-18 8-71 28-118 45-47 18-100 39-118 47-18 7-39 14-47 14s-29 6-47 14c-53 22-121 44-233 75-16 5-66 19-110 31-44 13-98 26-120 31-66 13-139 28-162 34-35 8-17 42 76 135 103 104 167 159 241 207 30 19 66 43 80 52 109 73 277 121 425 121 94 0 350-25 415-40 25-6 68-16 95-22 116-25 235-73 340-136 119-72 137-99 339-511 57-116 143-238 225-322 106-107 148-116 171-35 13 47 12 51-27 274-6 36 28 116 95 222 61 97 147 172 327 281 91 56 294 159 313 159 5 0 23 7 38 15 16 8 39 15 52 15s33 5 44 11c59 32 466-9 664-67 141-41 299-119 368-183 15-14 45-51 65-82 34-52 61-104 193-372 73-150 196-311 290-381 46-34 83-30 99 12 15 36 5 171-17 249l-17 63 47 95c64 129 116 195 205 264 110 84 145 106 312 195 271 143 394 160 764 106 107-16 253-53 310-80 11-5 37-16 57-24 60-24 170-101 224-158 58-60 116-143 165-238 61-116 64-132 50-298-7-81-18-196-26-257-8-60-21-168-30-240-25-195-44-340-60-440-8-49-17-117-20-150s-10-80-15-105-16-99-25-165c-14-111-26-187-55-370-6-38-15-104-20-145-4-41-13-102-19-135s-17-103-25-155-20-126-26-165c-7-38-14-86-16-105-5-43-30-202-45-290-6-36-15-92-19-125-5-33-18-118-30-190-11-71-25-163-30-202-5-40-14-90-19-110-6-21-11-54-11-73s-6-64-14-100-19-101-25-145-18-123-27-175-19-122-24-155c-4-33-13-89-19-125s-18-108-27-160c-8-52-21-131-29-175-7-44-21-132-30-195s-23-145-31-181c-8-37-14-80-14-95 0-16-6-62-14-104-8-41-20-104-25-140-14-86-49-307-54-345-3-16-10-59-16-95-29-166-51-316-85-575-9-66-23-166-31-221-8-56-15-120-15-141 0-22-5-65-10-94-6-30-15-101-20-159-6-58-17-170-25-250-9-80-20-192-24-250-5-58-15-160-22-227l-13-122-73-103c-78-108-93-145-93-220 0-56 17-189 30-238 5-19 19-80 31-135 11-55 25-113 30-130 5-16 27-96 48-177 22-81 45-159 53-175 17-35 46-40 81-13 29 23 26 19 114 192 35 68 78 150 96 183 138 248 173 313 229 425 29 58 56 107 59 110 8 6 172 348 215 447 102 233 151 387 166 515 10 78 9 99-1 112-34 41-96 9-211-109-187-192-220-225-240-235-23-12-24-8-11 52 6 24 17 86 25 138s20 124 27 160c6 36 14 92 19 125 4 33 12 83 18 110 6 28 19 102 27 165 9 63 21 135 26 160s13 74 18 110 14 94 20 130 18 110 27 165c25 157 44 283 59 375 8 47 21 137 30 200s21 135 26 160 14 82 19 128c5 45 12 86 14 91 3 5 10 44 16 87 10 81 27 203 54 379 25 165 35 235 52 345 8 58 21 146 29 195 8 50 16 106 18 125 5 42 23 161 42 285 8 50 17 108 19 130s11 85 20 140c8 55 22 152 31 215s23 158 30 210 21 147 30 210 23 160 31 215 21 150 30 210c8 61 22 157 30 215s21 152 29 210 22 157 30 220c9 63 20 147 25 185 5 39 13 99 19 135 19 119 40 274 52 375 15 135 16 523 0 720-17 234-34 341-88 585-15 68-65 223-89 277-8 17-14 34-14 37 0 12-65 141-77 154-7 7-13 17-13 22 0 16-112 174-194 274-118 143-219 235-361 329-95 63-243 137-273 137-10 0-22 4-27 9-18 17-129 41-255 57-133 16-231 10-350-23-129-35-333-124-490-214-13-8-67-46-120-85-235-176-345-356-366-602-3-45-10-84-14-87-4-2-51 82-104 188-121 239-145 281-213 386-166 252-431 430-748 502-81 19-384 19-445 0-207-62-409-152-553-248-40-26-73-51-75-55s-9-8-16-8c-17 0-163-144-217-215-26-33-56-85-69-115-12-30-26-63-31-73-14-26-29-100-39-196-5-46-13-88-19-94-8-8-11-6-11 5 0 9-49 112-108 230-151 298-224 411-332 517-179 175-375 281-615 332-86 19-354 34-400 23z"/><path d="M9275 10651c-236-66-431-275-615-659-34-70-66-138-72-152-5-14-16-38-23-55-34-76-145-426-145-457 0-45 37-6 106 110 41 68 74 125 74 127 0 4 66 107 77 120 5 6 24 33 43 60 91 134 222 286 235 273 3-3-5-22-19-43-14-20-37-60-51-89-15-28-48-91-76-141-27-49-58-110-70-135-11-25-34-74-51-110-41-85-89-190-99-215-4-11-23-58-42-105-44-110-114-298-122-330-3-14-10-34-15-45-13-32-37-106-55-170-9-33-23-78-30-100s-16-57-20-79c-3-21-10-46-15-55-4-9-16-52-25-96-10-44-22-96-26-115-42-165-50-234-46-402 4-139 7-173 21-186 10-10 19-12 24-7 13 14 72 169 72 187 0 9 7 21 15 28s15 23 15 36c0 12 5 26 11 30 8 5 10-11 6-57-7-80-23-199-36-276-35-198-41-311-41-818 0-559 5-685 26-685 18 0 23 10 34 81 5 35 17 93 25 129 9 36 22 92 29 125 8 33 20 83 29 110 8 28 20 71 28 98 7 26 18 46 24 44 12-5 9-163-5-282-6-44-10-251-10-460 0-313 4-409 20-545 27-228 50-354 92-505 11-38 23-83 27-100 10-37 39-123 50-150 5-11 17-42 26-70 25-69 161-356 242-505 76-141 99-181 196-343 56-93 107-176 112-185 6-9 29-45 53-79 23-34 42-66 42-72 0-5 3-11 8-13 4-2 25-30 47-63s44-64 48-70c4-5 57-77 118-158 60-82 116-156 124-164s15-18 15-21c0-4 10-18 23-32 12-14 40-47 62-75 185-232 590-667 613-657 9 4 2 43-33 182-17 64-65 270-90 385-10 44-24 105-31 136-8 31-14 69-14 84 0 14-5 35-10 46-6 10-15 47-19 82-5 34-14 89-21 122-25 127-40 214-55 320-9 61-20 130-26 155-5 25-13 83-18 130s-14 132-20 190c-16 149-38 269-72 388-16 56-29 110-29 120s-4 22-9 27c-5 6-14 33-21 60-21 89-38 158-70 280-17 66-37 145-45 175-7 30-34 136-60 235s-53 207-62 240c-8 33-21 87-29 120-9 33-18 71-21 85-2 14-11 45-18 70-20 68-25 104-15 120 10 15 80-125 160-320 28-69 57-138 65-155 7-16 21-52 30-80 10-27 22-54 26-60 3-5 10-25 14-43 8-39 21-41 29-5 7 35-8 274-24 368-28 177-93 451-140 595-5 14-18 59-30 100s-26 82-30 90c-4 9-11 30-15 49-4 18-13 44-21 59s-14 33-14 41-10 46-23 85c-61 185-117 386-117 420 0 56 24 24 104-139 39-80 106-225 106-230 0-2 14-34 31-72 17-37 37-82 45-100 8-17 14-35 14-40 0-6 9-18 20-28 40-37 45-13 51 293 4 158 10 305 13 327 23 163 43 1108 26 1245-10 83-71 316-101 385-5 11-13 38-18 60-10 43-16 64-52 190-12 44-24 100-26 125-4 43-3 44 12 25 9-11 64-117 122-235 59-118 114-226 124-238l18-24 5 24c6 29 30 307 52 588 20 269 16 710-9 870-31 198-71 319-140 419-39 57-106 121-149 143-31 15-165 80-180 86-10 5-27-31-44-91-27-95-45-162-55-202-5-22-13-49-18-60s-14-40-21-65c-29-115-41-168-49-205-4-22-12-56-18-75s-19-71-28-115-23-107-30-140c-59-264-108-543-149-850-8-60-20-148-26-195-7-47-16-137-20-200-5-63-14-139-19-169-6-29-11-92-11-140 0-47-7-162-15-256-11-131-15-341-14-915 0-410 4-783 10-830 5-47 13-143 19-215 5-71 14-150 19-175 6-25 10-72 11-105 0-33 7-95 15-138 17-89 20-193 6-202-10-5-16 21-25 100-2 22-8 58-14 80-13 51-32 187-66 480-26 227-61 638-72 848-3 70-10 130-15 133-12 7-12 706 1 738 5 15 12 63 15 109 32 481 64 865 84 987 5 36 17 119 26 185s22 154 30 195c7 41 21 120 30 175 18 107 39 214 60 310 7 33 21 96 30 140 21 100 29 135 91 378 17 67 38 145 59 217 7 25 20 72 29 105 10 33 22 78 29 100 13 44 11 66-6 77-18 12-76 7-142-11zM12580 5073c-108-18-516-200-609-272-19-14-39-29-43-32-5-3-15-36-23-74-13-63-13-73 7-144 11-42 24-95 29-119s11-48 14-53c4-5 10-30 15-57 5-26 16-76 24-112s21-96 29-135c27-132 49-149 127-100 22 14 64 34 93 45 28 12 61 25 72 30s43 18 70 30c28 12 59 25 70 30 27 11 146 65 220 99 33 16 71 31 85 34 14 4 36 16 49 28 19 18 22 29 18 58-3 20-10 77-17 126-6 50-18 128-26 175s-14 99-14 116c0 51-43 202-79 275-12 25-60 60-78 58-4-1-19-4-33-6z"/></g></svg>